# xmcd
#
# Track frame offsets:
#	150
#	27825
#	51303
#	80808
#	100777
#	123429
#	152232
#	167972
#	190640
#	207840
#	232086
#
# Disc length: 3363 seconds
#
# Revision: 0
# Processed by: cddbd v1.5.2PL0 Copyright (c) Steve Scherf et al.
# Submitted via: audiograbber 1.83.01
#
DISCID=930d210b
DTITLE=Delta Highway - Westbound Blues
DYEAR=2006
DGENRE=Blues
TTITLE0=Westbound Blues
TTITLE1=I Love You (But I Really Love The Blues)
TTITLE2=Early In The Morning
TTITLE3=Miss Annalise
TTITLE4=My Sugar Calls Me Honey
TTITLE5=Jumper On The Line - Snake Drive
TTITLE6=Done Told You Once
TTITLE7=My Worried Mind
TTITLE8=Cold As Ice
TTITLE9=All The Water In The Ocean
TTITLE10=On The Highway
EXTD=
EXTT0=
EXTT1=
EXTT2=
EXTT3=
EXTT4=
EXTT5=
EXTT6=
EXTT7=
EXTT8=
EXTT9=
EXTT10=
PLAYORDER=
